<?xml version="1.0" standalone="no"?>
<!DOCTYPE svg PUBLIC "-//W3C//DTD SVG 20010904//EN"
 "http://www.w3.org/TR/2001/REC-SVG-20010904/DTD/svg10.dtd">
<svg version="1.0" xmlns="http://www.w3.org/2000/svg"
 width="512.000000pt" height="512.000000pt" viewBox="0 0 512.000000 512.000000"
 preserveAspectRatio="xMidYMid meet">

<g transform="translate(0.000000,512.000000) scale(0.100000,-0.100000)"
fill="#000000" stroke="none">
<path d="M26 5009 l-26 -20 0 -214 c0 -207 1 -215 22 -235 17 -15 35 -20 80
-20 l58 0 0 -1585 c0 -1691 -2 -1631 45 -1649 9 -3 520 -6 1136 -6 l1119 0 0
-264 0 -265 -54 -24 c-69 -32 -131 -94 -165 -166 -22 -47 -26 -70 -26 -141 0
-72 4 -93 27 -140 36 -73 94 -132 165 -166 50 -25 70 -29 143 -29 72 0 93 4
140 27 73 36 137 99 169 167 36 76 37 201 3 275 -36 79 -85 132 -157 167 l-65
32 0 263 0 264 1119 0 c616 0 1127 3 1136 6 47 18 45 -42 45 1649 l0 1585 58
0 c105 1 112 17 112 260 l0 192 -29 29 -29 29 -2500 0 -2499 0 -27 -21z m4914
-234 l0 -85 -2390 0 -2390 0 0 85 0 85 2390 0 2390 0 0 -85z m-170 -1790 l0
-1535 -2220 0 -2220 0 0 1535 0 1535 2220 0 2220 0 0 -1535z m-2139 -2415 c96
-50 117 -178 42 -261 -62 -69 -162 -76 -230 -16 -65 58 -80 130 -40 207 41 83
142 113 228 70z"/>
<path d="M724 4166 c-55 -24 -64 -106 -16 -142 13 -10 100 -13 393 -14 l376 0
20 23 c42 44 31 111 -22 133 -49 20 -704 20 -751 0z"/>
<path d="M732 3829 c-47 -14 -68 -64 -48 -113 23 -54 49 -57 441 -54 l343 3
26 24 c36 34 36 88 0 122 l-26 24 -351 2 c-207 1 -366 -2 -385 -8z"/>
<path d="M4032 3828 c-129 -19 -246 -125 -276 -253 -15 -59 -8 -153 15 -206
l22 -51 -276 -276 -276 -276 -66 23 c-114 40 -241 18 -327 -58 -20 -17 -41
-31 -47 -31 -6 0 -105 47 -219 104 l-207 104 0 78 c0 65 -5 89 -27 136 -105
225 -398 270 -563 85 -78 -86 -105 -209 -70 -323 8 -27 11 -51 7 -55 -54 -46
-490 -407 -498 -412 -7 -4 -36 4 -66 18 -83 38 -162 43 -248 15 -214 -69 -305
-321 -182 -504 45 -67 89 -103 164 -133 169 -69 373 22 437 193 26 67 28 175
5 229 -8 21 -12 41 -7 45 11 10 474 391 495 408 15 12 26 10 75 -15 50 -24 70
-28 143 -28 77 0 91 3 147 34 34 18 71 43 83 56 l22 24 217 -108 216 -109 0
-78 c1 -63 6 -90 27 -135 33 -72 94 -134 167 -168 75 -35 211 -37 281 -5 162
76 240 261 180 426 l-22 61 280 280 c225 225 283 278 294 269 8 -6 41 -18 74
-27 230 -61 458 151 414 385 -36 188 -200 305 -388 278z m137 -189 c82 -45
111 -154 62 -232 -90 -147 -311 -83 -311 89 0 127 138 206 249 143z m-2043
-514 c45 -27 84 -90 84 -138 0 -33 -24 -94 -48 -121 -23 -26 -90 -56 -126 -56
-52 0 -114 38 -142 86 -22 37 -26 54 -22 99 11 128 142 195 254 130z m1014
-507 c141 -71 108 -285 -47 -314 -53 -10 -101 5 -144 43 -69 62 -76 162 -16
230 58 66 130 80 207 41z m-2054 -337 c59 -27 87 -72 92 -146 3 -50 0 -65 -20
-94 -33 -49 -69 -72 -121 -78 -60 -7 -110 11 -146 52 -77 88 -54 210 49 263
53 27 92 28 146 3z"/>
<path d="M708 3476 c-51 -38 -38 -124 22 -145 52 -18 701 -15 745 3 53 22 64
89 22 134 l-20 22 -376 0 c-293 -1 -380 -4 -393 -14z"/>
</g>
</svg>
