<?xml version="1.0" standalone="no"?>
<!DOCTYPE svg PUBLIC "-//W3C//DTD SVG 20010904//EN"
 "http://www.w3.org/TR/2001/REC-SVG-20010904/DTD/svg10.dtd">
<svg version="1.0" xmlns="http://www.w3.org/2000/svg"
 width="512.000000pt" height="512.000000pt" viewBox="0 0 512.000000 512.000000"
 preserveAspectRatio="xMidYMid meet">

<g transform="translate(0.000000,512.000000) scale(0.100000,-0.100000)"
fill="#000000" stroke="none">
<path d="M3623 4755 c-13 -9 -27 -32 -34 -53 l-11 -37 -1039 -249 c-719 -173
-1045 -255 -1058 -267 -11 -10 -22 -27 -26 -38 -6 -20 -17 -20 -459 -23 l-452
-3 -37 -25 c-39 -26 -77 -85 -77 -118 0 -19 -8 -20 -152 -24 -172 -4 -197 -12
-245 -75 l-28 -36 -3 -461 c-2 -254 0 -475 3 -493 8 -43 50 -92 100 -114 33
-15 66 -19 183 -19 141 0 142 0 142 -22 0 -27 31 -81 64 -111 24 -22 24 -25
106 -1097 44 -591 86 -1088 92 -1104 20 -51 50 -56 333 -56 296 0 317 4 334
67 7 25 11 291 11 796 l0 757 83 1 c45 1 93 4 106 8 46 13 59 47 95 260 20
112 37 204 38 206 2 1 426 -100 943 -225 l940 -225 11 -34 c22 -68 33 -71 255
-71 195 0 198 0 226 24 l28 24 3 401 3 401 87 0 c48 0 105 5 127 11 50 14 100
64 114 114 17 63 14 909 -3 958 -31 85 -76 109 -218 115 l-108 5 0 379 c0 403
-3 433 -48 457 -13 7 -95 11 -214 11 -158 0 -198 -3 -215 -15z m305 -1437 l2
-1278 -90 0 -90 0 0 1273 c0 701 3 1277 7 1281 4 4 43 5 88 4 l80 -3 3 -1277z
m-348 1 l0 -1171 -22 5 c-13 4 -437 106 -943 227 -506 121 -937 225 -957 231
l-38 10 0 699 c0 385 1 700 3 700 1 0 439 106 972 234 534 129 973 235 978
235 4 1 7 -526 7 -1170z m-2130 1 l0 -600 -425 0 -425 0 0 84 0 84 99 4 c89 3
102 6 125 27 35 33 35 83 1 116 -22 23 -31 25 -125 25 l-100 0 0 84 0 84 100
4 c88 3 102 6 125 28 31 29 33 77 4 114 -20 25 -24 26 -125 26 l-104 0 0 90 0
90 104 0 c101 0 105 1 125 26 29 37 27 85 -4 114 -23 22 -37 25 -125 28 l-100
4 0 84 0 84 425 0 425 0 0 -600z m-1025 0 l0 -425 -127 -3 -128 -3 0 431 0
431 128 -3 127 -3 0 -425z m3840 0 l0 -425 -82 -3 -83 -3 0 431 0 431 83 -3
82 -3 0 -425z m-3075 -1795 l0 -1025 -170 0 -169 0 -5 32 c-3 18 -37 454 -76
968 -39 514 -73 961 -77 993 l-6 57 252 0 251 0 0 -1025z m273 991 c9 -19 25
-37 36 -41 26 -8 26 -6 -7 -195 l-27 -155 -48 -3 -47 -3 0 215 0 216 38 0 c34
0 40 -4 55 -34z"/>
<path d="M4833 3996 c-110 -54 -198 -104 -207 -118 -37 -53 0 -128 64 -128 36
0 379 169 409 202 27 29 27 71 -1 102 -43 48 -59 45 -265 -58z"/>
<path d="M4635 3375 c-32 -31 -32 -75 -1 -112 l24 -28 185 -3 c148 -3 191 -1
221 12 59 24 71 91 26 136 -19 19 -34 20 -225 20 -205 0 -206 0 -230 -25z"/>
<path d="M4635 2865 c-29 -28 -32 -70 -9 -103 9 -14 97 -64 207 -118 206 -103
222 -106 265 -58 25 28 27 51 10 89 -9 20 -56 48 -199 120 -204 103 -234 111
-274 70z"/>
</g>
</svg>
