<?xml version="1.0" standalone="no"?>
<!DOCTYPE svg PUBLIC "-//W3C//DTD SVG 20010904//EN"
 "http://www.w3.org/TR/2001/REC-SVG-20010904/DTD/svg10.dtd">
<svg version="1.0" xmlns="http://www.w3.org/2000/svg"
 width="512.000000pt" height="512.000000pt" viewBox="0 0 512.000000 512.000000"
 preserveAspectRatio="xMidYMid meet">

<g transform="translate(0.000000,512.000000) scale(0.100000,-0.100000)"
fill="#000000" stroke="none">
<path d="M1357 5105 c-57 -21 -144 -83 -182 -129 -49 -60 -86 -146 -96 -224
-4 -37 -8 -178 -9 -314 l0 -248 84 0 85 0 3 43 3 42 1453 3 1452 2 0 203 c-1
111 -5 232 -9 269 -19 141 -109 269 -237 333 l-59 30 -1225 2 c-1022 1 -1231
-1 -1263 -12z m2439 -160 c67 -20 117 -64 150 -132 26 -53 28 -67 32 -210 l4
-153 -1372 0 -1372 0 4 153 c4 143 6 157 32 210 32 66 83 112 146 132 69 21
2304 22 2376 0z"/>
<path d="M1550 4778 c-53 -28 -62 -97 -18 -138 19 -18 35 -20 140 -20 113 0
120 1 143 25 34 33 34 83 -1 116 -23 22 -35 24 -132 27 -74 2 -115 -1 -132
-10z"/>
<path d="M2063 4780 c-30 -12 -55 -63 -47 -95 3 -14 18 -34 31 -45 24 -19 42
-20 308 -20 270 0 283 1 309 21 19 15 26 30 26 54 0 92 -12 95 -337 94 -147 0
-278 -4 -290 -9z"/>
<path d="M4158 4174 c-409 -88 -676 -494 -592 -902 50 -246 206 -441 436 -546
113 -52 208 -70 352 -64 206 9 354 74 502 222 148 148 213 296 222 502 7 191
-36 340 -142 487 -174 243 -487 364 -778 301z m287 -169 c172 -36 328 -158
403 -316 48 -100 62 -162 62 -271 0 -159 -59 -299 -174 -414 -115 -115 -255
-174 -414 -174 -109 0 -171 14 -271 62 -158 75 -280 231 -316 403 -30 142 -15
255 50 390 60 125 144 210 270 270 133 65 248 80 390 50z"/>
<path d="M4002 3737 c-31 -33 -30 -86 3 -117 21 -19 38 -24 105 -28 l81 -5
-20 -21 c-20 -21 -21 -34 -21 -312 0 -278 1 -291 20 -312 28 -30 62 -36 98
-18 43 22 52 60 52 229 l0 150 26 -24 c23 -21 35 -24 107 -24 108 0 163 21
220 85 69 77 87 180 46 270 -24 54 -50 83 -104 119 l-40 26 -275 3 -275 3 -23
-24z m543 -172 c34 -33 34 -83 0 -115 -21 -19 -40 -25 -106 -30 -67 -4 -84 -9
-99 -28 -18 -21 -18 -20 -21 62 -4 73 -7 88 -28 110 l-24 26 127 0 c121 0 128
-1 151 -25z"/>
<path d="M433 4100 c-61 -13 -117 -45 -152 -87 -59 -71 -61 -90 -61 -594 0
-433 1 -461 20 -512 25 -66 80 -121 148 -147 49 -19 79 -20 510 -20 510 0 525
2 599 64 22 20 51 58 64 88 l24 53 0 480 c0 466 -1 481 -21 525 -26 58 -76
108 -134 134 -43 20 -62 21 -500 23 -250 1 -474 -2 -497 -7z m954 -193 c28
-27 28 -28 28 -170 l0 -142 -132 -3 -131 -3 -39 58 c-109 164 -347 149 -439
-28 l-15 -29 -134 0 -135 0 0 135 c0 156 10 189 63 204 18 6 215 9 469 8 l438
-2 27 -28z m-429 -337 c62 -58 14 -153 -73 -141 -30 3 -65 48 -65 82 0 66 89
104 138 59z m-278 -180 c17 -41 89 -105 136 -121 65 -22 142 -17 200 14 53 27
99 73 115 114 8 23 11 23 149 23 l140 0 0 -202 c0 -112 -5 -220 -11 -240 -19
-70 -13 -69 -519 -66 l-449 3 -23 23 c-22 22 -23 28 -26 252 l-3 230 139 0
140 0 12 -30z"/>
<path d="M2480 3414 c-342 -62 -591 -287 -696 -629 -14 -47 -18 -93 -18 -215
-1 -165 11 -225 70 -357 74 -168 249 -343 418 -418 130 -58 191 -70 356 -70
165 0 226 12 356 70 169 75 344 250 418 418 59 131 71 192 71 357 0 134 -4
165 -24 230 -65 207 -178 364 -346 477 -82 55 -111 69 -218 104 -81 27 -108
31 -227 34 -74 2 -146 2 -160 -1z m294 -184 c304 -77 516 -349 516 -660 0
-376 -304 -680 -680 -680 -505 0 -831 528 -609 984 137 281 468 434 773 356z"/>
<path d="M2655 3164 c-90 -22 -150 -66 -188 -138 -17 -34 -22 -63 -25 -163
l-4 -123 -50 0 c-77 0 -117 -29 -117 -85 0 -56 40 -85 118 -85 l51 0 0 -269
c0 -270 0 -270 24 -297 33 -39 89 -39 122 0 24 27 24 27 24 297 l0 269 56 0
c48 0 59 4 85 29 31 31 36 55 18 94 -15 32 -49 47 -109 47 l-50 0 0 99 c0 90
2 103 23 126 32 38 92 38 124 0 13 -14 23 -35 23 -46 0 -28 26 -75 45 -83 35
-13 76 -6 100 19 66 65 -10 241 -125 289 -40 16 -116 27 -145 20z"/>
<path d="M1074 2647 c-3 -8 -4 -47 -2 -88 l3 -74 83 -3 82 -3 0 91 0 90 -80 0
c-58 0 -82 -4 -86 -13z"/>
<path d="M3980 2570 l0 -91 83 3 82 3 0 85 0 85 -82 3 -83 3 0 -91z"/>
<path d="M630 2460 c-361 -96 -601 -426 -577 -790 29 -424 384 -740 807 -717
201 11 379 94 517 239 136 145 205 323 205 528 -1 333 -213 624 -527 727 -112
36 -314 43 -425 13z m335 -165 c105 -27 183 -73 270 -160 124 -123 176 -246
176 -420 0 -163 -57 -300 -171 -416 -123 -124 -284 -187 -455 -176 -156 10
-274 63 -386 176 -207 207 -235 507 -72 754 75 114 213 211 346 243 73 17 221
17 292 -1z"/>
<path d="M695 2218 c-39 -23 -44 -40 -45 -145 l0 -103 -60 0 c-51 0 -65 -4
-85 -25 -28 -27 -33 -79 -11 -107 18 -24 59 -38 112 -38 l44 0 0 -197 c0 -187
2 -201 24 -249 13 -27 43 -67 67 -87 141 -121 369 -45 410 137 10 44 9 61 -1
87 -15 35 -58 58 -96 51 -29 -5 -64 -46 -64 -74 0 -27 -26 -74 -45 -82 -35
-13 -76 -6 -100 19 -25 24 -25 26 -25 210 l0 185 133 0 c145 0 174 8 195 54
17 33 9 69 -20 96 -20 18 -35 20 -164 20 l-142 0 -4 105 c-2 88 -6 108 -23
125 -25 25 -74 34 -100 18z"/>
<path d="M4135 2461 c-457 -112 -705 -604 -525 -1040 138 -335 502 -528 858
-455 246 50 441 206 546 436 85 185 89 429 10 611 -101 230 -308 403 -543 453
-90 19 -259 17 -346 -5z m328 -167 c208 -54 377 -223 431 -431 19 -71 21 -199
5 -275 -16 -79 -81 -206 -138 -269 -133 -149 -349 -224 -547 -190 -108 19
-236 86 -316 166 -235 235 -236 606 -3 841 77 77 179 136 277 160 75 18 219
17 291 -2z"/>
<path d="M4175 2115 l-25 -24 0 -370 c0 -203 3 -377 6 -386 8 -19 55 -45 83
-45 19 0 460 343 488 379 20 26 15 77 -9 104 -28 30 -415 339 -445 355 -35 19
-72 14 -98 -13z m251 -321 c52 -43 91 -80 87 -84 -10 -9 -164 -131 -180 -143
-10 -7 -13 23 -13 147 0 86 2 156 5 156 3 0 49 -34 101 -76z"/>
<path d="M1070 703 c1 -137 5 -278 9 -315 24 -182 165 -335 340 -368 74 -14
2308 -14 2382 0 175 33 316 186 340 368 4 37 8 158 9 269 l0 203 -1452 2
-1453 3 -3 43 -3 42 -85 0 -84 0 0 -247z m2908 -166 c-4 -143 -6 -157 -32
-210 -33 -68 -83 -112 -150 -132 -74 -22 -2298 -22 -2372 0 -67 20 -117 64
-150 132 -26 53 -28 67 -32 210 l-4 153 1372 0 1372 0 -4 -153z"/>
<path d="M2466 494 c-33 -34 -34 -74 -2 -111 24 -28 25 -28 146 -28 121 0 122
0 146 28 32 37 31 77 -2 111 -26 25 -31 26 -144 26 -113 0 -118 -1 -144 -26z"/>
</g>
</svg>
