<?xml version="1.0" standalone="no"?>
<!DOCTYPE svg PUBLIC "-//W3C//DTD SVG 20010904//EN"
 "http://www.w3.org/TR/2001/REC-SVG-20010904/DTD/svg10.dtd">
<svg version="1.0" xmlns="http://www.w3.org/2000/svg"
 width="1049.000000pt" height="1445.000000pt" viewBox="0 0 1049.000000 1445.000000"
 preserveAspectRatio="xMidYMid meet">

<g transform="translate(0.000000,1445.000000) scale(0.100000,-0.100000)"
fill="#000000" stroke="none">
<path d="M2090 14423 c0 -123 40 -475 76 -673 105 -576 289 -1114 737 -2152
67 -157 82 -198 69 -198 -33 0 -340 51 -492 81 -85 17 -333 71 -550 120 -611
139 -838 181 -1185 221 -125 14 -636 16 -702 2 l-41 -9 82 -185 c448 -1004
1044 -1780 1808 -2355 609 -459 1325 -790 2158 -1000 187 -46 562 -125 600
-125 11 0 20 -4 20 -9 0 -4 -521 -521 -1157 -1147 -637 -626 -1450 -1429
-1808 -1784 -357 -355 -686 -675 -730 -712 -131 -110 -169 -169 -169 -263 -1
-78 35 -145 125 -237 110 -113 216 -145 318 -96 31 14 117 91 261 233 118 116
310 298 425 405 261 241 653 632 767 765 46 55 128 156 182 225 373 483 660
579 1012 340 96 -65 374 -341 461 -458 98 -130 155 -264 189 -442 21 -110 23
-268 33 -2575 9 -2046 4 -1899 81 -2061 81 -168 260 -281 508 -319 l42 -7 0
2379 1 2378 42 -46 c23 -26 103 -114 177 -195 75 -82 298 -338 496 -569 502
-584 587 -679 844 -936 321 -321 503 -460 785 -599 767 -380 1606 -253 2252
341 361 332 581 727 660 1189 23 134 23 438 0 587 -34 215 -107 443 -209 647
-127 254 -269 443 -566 753 -387 404 -1593 1612 -2060 2064 -246 238 -493 479
-549 536 -341 347 -523 701 -608 1183 -73 415 -91 511 -137 693 -167 674 -464
1322 -865 1883 -163 228 -320 412 -553 645 -225 226 -378 361 -585 514 -610
453 -1324 780 -2077 950 -84 19 -156 35 -160 35 -5 0 -8 -8 -8 -17z m1136
-1108 c557 -308 951 -601 1329 -986 478 -488 808 -1031 1026 -1690 51 -156
156 -565 147 -574 -10 -10 -354 142 -535 235 -605 312 -1078 711 -1420 1198
-336 477 -566 1050 -683 1698 -30 169 -35 204 -24 204 3 0 75 -38 160 -85z
m-1706 -2317 c868 -175 2245 -733 3400 -1376 207 -115 321 -193 415 -283 165
-159 199 -303 102 -431 -48 -63 -109 -96 -218 -118 -804 -165 -1950 244 -2909
1038 -160 133 -486 462 -608 614 -120 151 -242 330 -323 477 -32 58 -59 108
-59 112 0 7 12 6 200 -33z m4586 -2529 c34 -17 116 -89 274 -244 385 -377 511
-498 975 -935 1108 -1045 1599 -1550 2064 -2120 129 -158 185 -248 258 -417
81 -187 104 -275 110 -423 6 -149 -13 -258 -78 -446 -136 -395 -376 -672 -741
-855 -135 -68 -224 -102 -353 -135 -103 -27 -122 -29 -300 -29 -178 1 -196 3
-278 28 -187 58 -310 136 -512 327 -541 512 -861 825 -2203 2164 -794 793
-1158 1163 -1172 1191 -26 53 -25 95 1 148 15 28 303 323 863 883 914 913 899
900 997 891 25 -2 67 -14 95 -28z"/>
<path d="M5502 7270 c-62 -28 -137 -109 -157 -171 -66 -196 94 -451 420 -670
304 -205 720 -321 1034 -290 410 41 722 243 670 434 -23 85 -82 162 -153 200
-36 19 -56 22 -161 21 -97 0 -147 -7 -260 -32 -209 -48 -299 -58 -399 -44
-215 28 -366 131 -633 428 -102 114 -155 144 -252 144 -44 0 -81 -7 -109 -20z"/>
</g>
</svg>
